<?xml version="1.0" encoding="utf-8"?><!-- Uploaded to: SVG Repo, www.svgrepo.com, Generator: SVG Repo Mixer Tools -->
<svg width="800px" height="800px" viewBox="0 0 128 128" xmlns="http://www.w3.org/2000/svg" xmlns:xlink="http://www.w3.org/1999/xlink" aria-hidden="true" role="img" class="iconify iconify--noto" preserveAspectRatio="xMidYMid meet">
<defs>
<path id="IconifyId17ecdb2904d178eab8839" d="M4 4h120v120H4z">
</path>
</defs>
<clipPath id="IconifyId17ecdb2904d178eab8840">
<use xlink:href="#IconifyId17ecdb2904d178eab8839">
</use>
</clipPath>
<g clip-path="url(#IconifyId17ecdb2904d178eab8840)">
<linearGradient id="IconifyId17ecdb2904d178eab8841" x1="38.897" x2="38.897" y1="114.68" y2="5.579" gradientTransform="matrix(1.0084 0 0 1 1.152 0)" gradientUnits="userSpaceOnUse">
<stop stop-color="#A47B62" offset="0">
</stop>
<stop stop-color="#BA8D68" offset="1">
</stop>
</linearGradient>
<path d="M18.39 90.92c-.07-.06-.14-.12-.23-.17c-.19-.12-.31-.28-.34-.48c-.03-.18 0-.37.09-.56c2.82-1.34 19.41-9.28 23.6-13.09c1.21-1.1 1.71-3.51 2.74-8.86c.22-1.16.46-2.4.72-3.7c.24-1.19.9-3.42 1.59-5.78c.95-3.24 1.94-6.59 2.27-8.59c2.74-16.59 5.02-37.13 5.04-37.34c.5-4.74 1.56-6.76 3.55-6.76c3.17 0 5.31 1.9 5.31 4.74l.21 79.03c0 5.31-1.81 6-4.32 6.96c-1.46.56-3.12 1.19-4.32 2.8c-2.3 3.08-4.76 7.15-7.14 11.1c-.9 1.5-1.83 3.03-2.73 4.48L18.39 90.92z" fill="url(#IconifyId17ecdb2904d178eab8841)">
</path>
<path d="M57.43 7.08c2.35 0 3.81 1.24 3.81 3.25l.21 79.02c0 4.28-1.05 4.68-3.36 5.56c-1.57.6-3.52 1.34-4.99 3.3c-2.35 3.14-4.82 7.25-7.22 11.22c-.59.97-1.18 1.96-1.77 2.93l-24.1-21.99c5.15-2.47 18.62-9.1 22.51-12.64c1.63-1.48 2.19-4.4 3.2-9.68c.22-1.15.46-2.39.72-3.69c.23-1.13.91-3.43 1.56-5.65c.97-3.29 1.97-6.68 2.31-8.77c2.74-16.63 5.03-37.21 5.05-37.44c.39-3.65 1.06-5.42 2.07-5.42m0-3c-3.97 0-4.7 4.87-5.04 8.09c0 0-2.27 20.52-5.03 37.26c-.56 3.39-3.27 11.44-3.85 14.32c-1.23 6.04-1.86 10.71-3 11.75c-4.37 3.97-23.61 13.02-23.61 13.02c-.94 1.19-.73 2.76.48 3.5L44.75 117c3.5-5.5 7.31-12.4 10.75-17c2.75-3.68 8.94-1 8.94-10.66l-.21-79.02c0-3.44-2.58-6.24-6.8-6.24z" fill="#91674D">
</path>
<linearGradient id="IconifyId17ecdb2904d178eab8842" x1="-2.913" x2="55.292" y1="103.73" y2="103.73" gradientUnits="userSpaceOnUse">
<stop stop-color="#2196F3" offset="0">
</stop>
<stop stop-color="#64B5F6" offset="1">
</stop>
</linearGradient>
<path d="M47.57 130.66l-50.49-.56l.56-38.82l31.74-14.25c1.49-.66 3.22.17 3.62 1.75c.95 3.71 3.16 10.29 8 16.89c4.56 6.22 9.48 11.02 12.54 13.76a5.258 5.258 0 0 1 1.21 6.25l-12.16 9.35l4.98 5.63z" fill="url(#IconifyId17ecdb2904d178eab8842)">
</path>
<path d="M52.6 18s.82-5.17 5.52-5.17S63.14 18 63.14 18" fill="none" stroke="#91674D" stroke-linecap="round" stroke-linejoin="round" stroke-miterlimit="10" stroke-width="2">
</path>
<path d="M51.11 31s1.03-5.65 6.01-5.65S63.24 31 63.24 31" fill="none" stroke="#91674D" stroke-linecap="round" stroke-linejoin="round" stroke-miterlimit="10" stroke-width="2">
</path>
<path d="M30.21 79.95c1 3.75 3.35 10.64 8.37 17.49c4.64 6.32 9.61 11.22 12.96 14.22c.6.54.86 1.36.71 2.13l-11.42 8.33c-.67.49-1.1 1.22-1.21 2.04s.13 1.64.65 2.28l.94 1.15l-41.07-.46l.49-33.89l29.58-13.29m.25-3.15c-.36 0-.72.07-1.07.23L-2.35 91.28l-.56 38.82l50.49.56l-4.99-6.12l12.16-8.86a5.24 5.24 0 0 0-1.21-6.25c-3.06-2.74-7.97-7.53-12.54-13.76c-4.84-6.59-7.05-13.17-8-16.89a2.617 2.617 0 0 0-2.54-1.98z" fill="#424242" opacity=".2">
</path>
</g>
<g clip-path="url(#IconifyId17ecdb2904d178eab8840)">
<linearGradient id="IconifyId17ecdb2904d178eab8843" x1="-228.87" x2="-228.87" y1="114.68" y2="5.579" gradientTransform="matrix(-1.0084 0 0 1 -143.62 0)" gradientUnits="userSpaceOnUse">
<stop stop-color="#A47B62" offset="0">
</stop>
<stop stop-color="#BA8D68" offset="1">
</stop>
</linearGradient>
<path d="M83.09 114.68c-.9-1.46-1.83-2.99-2.73-4.48c-2.38-3.94-4.83-8.02-7.14-11.1c-1.2-1.61-2.86-2.24-4.32-2.8c-2.51-.96-4.32-1.65-4.32-6.96l.21-79.02c0-2.84 2.13-4.74 5.31-4.74c1.99 0 3.05 2.02 3.55 6.75c.02.21 2.31 20.76 5.04 37.35c.33 2 1.32 5.35 2.27 8.59c.69 2.36 1.35 4.59 1.59 5.78c.27 1.31.5 2.56.73 3.72c1.02 5.34 1.52 7.74 2.73 8.84c4.19 3.81 20.78 11.75 23.6 13.09c.09.19.13.39.1.56c-.04.2-.15.37-.34.48c-.08.05-.16.11-.23.17l-26.05 23.77z" fill="url(#IconifyId17ecdb2904d178eab8843)">
</path>
<path d="M70.1 7.08c1 0 1.68 1.77 2.06 5.42c.02.21 2.31 20.79 5.05 37.42c.34 2.09 1.34 5.49 2.31 8.78c.65 2.22 1.33 4.52 1.56 5.65c.26 1.3.5 2.54.72 3.69c1.01 5.29 1.57 8.2 3.2 9.68c3.89 3.54 17.36 10.17 22.51 12.64l-24.1 21.99c-.59-.97-1.19-1.96-1.77-2.93c-2.4-3.97-4.87-8.08-7.22-11.22c-1.46-1.96-3.42-2.7-4.99-3.3c-2.3-.88-3.36-1.28-3.36-5.55l.21-79.03c.01-2 1.47-3.24 3.82-3.24m0-3c-4.22 0-6.81 2.8-6.81 6.24l-.21 79.02c0 9.66 6.19 6.98 8.94 10.66c3.44 4.6 7.25 11.5 10.75 17l27.37-24.97c1.21-.74 1.43-2.31.48-3.5c0 0-19.24-9.05-23.61-13.02c-1.14-1.04-1.77-5.71-3-11.75c-.58-2.88-3.29-10.93-3.85-14.32c-2.76-16.74-5.03-37.26-5.03-37.26c-.32-3.23-1.06-8.1-5.03-8.1z" fill="#91674D">
</path>
<linearGradient id="IconifyId17ecdb2904d178eab8844" x1="-272.91" x2="-214.71" y1="103.73" y2="103.73" gradientTransform="matrix(-1 0 0 1 -142.47 0)" gradientUnits="userSpaceOnUse">
<stop stop-color="#2196F3" offset="0">
</stop>
<stop stop-color="#64B5F6" offset="1">
</stop>
</linearGradient>
<path d="M79.95 130.66l50.49-.56l-.56-38.82l-31.74-14.25c-1.49-.66-3.22.17-3.62 1.75c-.95 3.71-3.16 10.29-8 16.89c-4.56 6.22-9.48 11.02-12.54 13.76a5.258 5.258 0 0 0-1.21 6.25l12.16 9.35l-4.98 5.63z" fill="url(#IconifyId17ecdb2904d178eab8844)">
</path>
<path d="M74.93 18s-.82-5.17-5.52-5.17S64.39 18 64.39 18" fill="none" stroke="#91674D" stroke-linecap="round" stroke-linejoin="round" stroke-miterlimit="10" stroke-width="2">
</path>
<path d="M76.42 31s-1.03-5.65-6.01-5.65c-4.99 0-6.12 5.65-6.12 5.65" fill="none" stroke="#91674D" stroke-linecap="round" stroke-linejoin="round" stroke-miterlimit="10" stroke-width="2">
</path>
<path d="M97.32 79.95l29.59 13.28l.49 33.89l-41.07.46l.94-1.15c.52-.64.76-1.46.65-2.28s-.54-1.55-1.21-2.04l-11.42-8.33c-.15-.77.1-1.59.71-2.13c3.35-3 8.32-7.9 12.96-14.22c5.01-6.84 7.36-13.73 8.36-17.48m-.25-3.15c-1.16 0-2.24.77-2.55 1.98c-.95 3.71-3.16 10.29-8 16.89c-4.56 6.22-9.48 11.02-12.54 13.76a5.258 5.258 0 0 0-1.21 6.25l12.16 8.86l-4.99 6.12l50.49-.56l-.56-38.82l-31.73-14.25c-.35-.16-.71-.23-1.07-.23z" fill="#424242" opacity=".2">
</path>
</g>
</svg>